<svg xmlns="http://www.w3.org/2000/svg" xmlns:xlink="http://www.w3.org/1999/xlink" width="655.472" height="462" viewBox="0 0 655.472 462">
  <defs>
    <linearGradient id="linear-gradient" x1="0.5" y1="1" x2="0.5" gradientUnits="objectBoundingBox">
      <stop offset="0" stop-color="gray" stop-opacity="0.251"/>
      <stop offset="0.54" stop-color="gray" stop-opacity="0.122"/>
      <stop offset="1" stop-color="gray" stop-opacity="0.102"/>
    </linearGradient>
    <linearGradient id="linear-gradient-2" x1="0.5" y1="1" x2="0.5" y2="0" xlink:href="#linear-gradient"/>
    <linearGradient id="linear-gradient-3" x1="0.5" y1="1" x2="0.5" y2="0" xlink:href="#linear-gradient"/>
    <linearGradient id="linear-gradient-5" x1="0.5" y1="1" x2="0.5" y2="0" xlink:href="#linear-gradient"/>
    <linearGradient id="linear-gradient-6" x1="0.501" y1="1" x2="0.501" y2="0" xlink:href="#linear-gradient"/>
    <linearGradient id="linear-gradient-7" x1="0.5" y1="1" x2="0.5" y2="0" xlink:href="#linear-gradient"/>
    <linearGradient id="linear-gradient-12" x1="0.5" y1="1" x2="0.5" y2="0" xlink:href="#linear-gradient"/>
    <linearGradient id="linear-gradient-13" x1="0.5" y1="1" x2="0.5" y2="0" xlink:href="#linear-gradient"/>
    <linearGradient id="linear-gradient-17" x1="0.5" y1="1" x2="0.5" y2="0" xlink:href="#linear-gradient"/>
    <linearGradient id="linear-gradient-18" x1="0.501" y1="1" x2="0.501" y2="0" xlink:href="#linear-gradient"/>
    <linearGradient id="linear-gradient-19" x1="0.5" y1="1" x2="0.5" gradientUnits="objectBoundingBox">
      <stop offset="0" stop-color="#b3b3b3" stop-opacity="0.251"/>
      <stop offset="0.54" stop-color="#b3b3b3" stop-opacity="0.102"/>
      <stop offset="1" stop-color="#b3b3b3" stop-opacity="0.051"/>
    </linearGradient>
    <linearGradient id="linear-gradient-20" x1="0.5" y1="1.001" x2="0.5" gradientUnits="objectBoundingBox">
      <stop offset="0" stop-opacity="0.122"/>
      <stop offset="0.55" stop-opacity="0.09"/>
      <stop offset="1" stop-opacity="0.02"/>
    </linearGradient>
    <linearGradient id="linear-gradient-21" x1="0.5" y1="0.999" x2="0.5" y2="0" xlink:href="#linear-gradient-20"/>
  </defs>
  <g id="Group_93" data-name="Group 93" transform="translate(-1282.273 -212)">
    <g id="Rectangle_2" data-name="Rectangle 2" transform="translate(1836 631)" fill="none" stroke="#ff9c00" stroke-width="3">
      <rect width="42" height="43" rx="5" stroke="none"/>
      <rect x="1.5" y="1.5" width="39" height="40" rx="3.5" fill="none"/>
    </g>
    <g id="Rectangle_3" data-name="Rectangle 3" transform="translate(1307 409)" fill="none" stroke="#ff9c00" stroke-width="3">
      <rect width="42" height="43" rx="5" stroke="none"/>
      <rect x="1.5" y="1.5" width="39" height="40" rx="3.5" fill="none"/>
    </g>
    <g id="Ellipse_15" data-name="Ellipse 15" transform="translate(1835 212)" fill="none" stroke="#ff9c00" stroke-width="3">
      <circle cx="34" cy="34" r="34" stroke="none"/>
      <circle cx="34" cy="34" r="32.5" fill="none"/>
    </g>
    <g id="undraw_house_searching_n8mp" transform="translate(1282.283 270.246)">
      <circle id="Ellipse_19" data-name="Ellipse 19" cx="123.716" cy="123.716" r="123.716" transform="translate(22.905 35.711)" fill="none" stroke="#ff9800" stroke-miterlimit="10" stroke-width="4" stroke-dasharray="12" opacity="0.3"/>
      <circle id="Ellipse_20" data-name="Ellipse 20" cx="123.716" cy="123.716" r="123.716" transform="translate(349.189 11.239)" fill="none" stroke="#ff9800" stroke-miterlimit="10" stroke-width="4" stroke-dasharray="12" opacity="0.3"/>
      <g id="_Group_" data-name="&lt;Group&gt;" transform="translate(506.771 106.506)">
        <path id="Path_42" data-name="Path 42" d="M905.782,482.4a30.589,30.589,0,0,1-8.307-20.93,31.072,31.072,0,0,1,15.24-26.558,18.034,18.034,0,0,1-3.181-10.2c0-10.258,8.606-18.571,19.224-18.571A19.135,19.135,0,0,1,947.2,419.52a28.842,28.842,0,0,1,24.526-13.371c15.818,0,28.645,12.392,28.645,27.673a26.781,26.781,0,0,1-1.754,9.551c.578-.041,1.162-.088,1.754-.088,12.7,0,22.989,9.945,22.989,22.215a21.683,21.683,0,0,1-.116,2.243,27.587,27.587,0,0,1,17.266,25.341c0,15.233-12.779,27.585-28.55,27.585a29.666,29.666,0,0,1-4.942-.421c.081.918.136,1.849.136,2.787,0,17.1-14.343,30.956-32.037,30.956a32.628,32.628,0,0,1-18.245-5.513,24.322,24.322,0,0,1-15.492,5.513c-13.221,0-23.934-10.353-23.934-23.112,0-.551.048-1.094.088-1.638h-.088c-14.153,0-25.627-11.087-25.627-24.764A24.675,24.675,0,0,1,905.782,482.4Z" transform="translate(-891.82 -406.149)" fill="url(#linear-gradient)"/>
      </g>
      <path id="_Path_" data-name="&lt;Path&gt;" d="M909.874,483.783a29.3,29.3,0,0,1-7.946-20.033,29.739,29.739,0,0,1,14.588-25.423,17.26,17.26,0,0,1-3.045-9.782c0-9.816,8.239-17.776,18.4-17.776a18.353,18.353,0,0,1,17.674,12.793,27.612,27.612,0,0,1,23.431-12.786c15.145,0,27.415,11.862,27.415,26.511a25.641,25.641,0,0,1-1.679,9.143c.557-.041,1.115-.082,1.679-.082,12.154,0,22,9.517,22,21.263a20.8,20.8,0,0,1-.116,2.148,26.437,26.437,0,0,1,16.525,24.254c0,14.581-12.236,26.4-27.326,26.4a28.407,28.407,0,0,1-4.761-.4c.084.877.131,1.768.131,2.665,0,16.362-13.731,29.624-30.664,29.624a31.269,31.269,0,0,1-17.463-5.275,23.282,23.282,0,0,1-14.771,5.288c-12.65,0-22.908-9.911-22.908-22.133,0-.53.041-1.047.081-1.57h-.081c-13.548,0-24.533-10.611-24.533-23.7a23.622,23.622,0,0,1,13.364-21.127Z" transform="translate(-386.551 -301.122)" fill="#009688"/>
      <line id="_Path_2" data-name="&lt;Path&gt;" y2="164.665" transform="translate(575.298 151.671)" fill="#795548"/>
      <rect id="Rectangle_39" data-name="Rectangle 39" width="8.966" height="164.658" transform="translate(570.662 151.671)" fill="url(#linear-gradient-2)"/>
      <rect id="Rectangle_40" data-name="Rectangle 40" width="4.962" height="164.658" transform="translate(572.817 151.671)" fill="#795548"/>
      <line id="_Path_3" data-name="&lt;Path&gt;" x1="29.406" y1="29.991" transform="translate(546.394 170.996)" fill="#795548"/>
      <rect id="Rectangle_41" data-name="Rectangle 41" width="4.962" height="42.002" transform="matrix(0.714, -0.7, 0.7, 0.714, 544.631, 172.734)" fill="#795548"/>
      <line id="_Path_4" data-name="&lt;Path&gt;" y1="21.385" x2="30.48" transform="translate(575.801 205.378)" fill="#795548"/>
      <rect id="Rectangle_42" data-name="Rectangle 42" width="37.237" height="4.962" transform="translate(574.373 224.72) rotate(-35.06)" fill="#795548"/>
      <g id="_Group_2" data-name="&lt;Group&gt;" transform="translate(449.848 107.69)">
        <path id="Path_43" data-name="Path 43" d="M938.165,485.852a32.452,32.452,0,0,0-6.7-48.535,19.19,19.19,0,0,0,3.073-10.448,18.509,18.509,0,0,0-36.367-5.316A27.524,27.524,0,0,0,874.5,407.89c-15.274,0-27.659,12.664-27.659,28.285a28.8,28.8,0,0,0,1.693,9.761c-.557-.041-1.122-.088-1.693-.088-12.236,0-22.2,10.2-22.2,22.7,0,.775.041,1.536.115,2.291a28.217,28.217,0,0,0-16.674,25.9c0,15.573,12.344,28.2,27.564,28.2a27.107,27.107,0,0,0,4.758-.428c-.082.938-.129,1.89-.129,2.848,0,17.47,13.847,31.636,30.936,31.636a30.309,30.309,0,0,0,17.613-5.635,22.7,22.7,0,0,0,14.955,5.635c12.766,0,23.112-10.584,23.112-23.635,0-.564-.048-1.122-.082-1.679h.082c13.67,0,24.743-11.332,24.743-25.307a25.369,25.369,0,0,0-13.466-22.52Z" transform="translate(-808.079 -407.89)" fill="url(#linear-gradient-3)"/>
      </g>
      <path id="_Path_5" data-name="&lt;Path&gt;" d="M936.684,487.886a30.46,30.46,0,0,0-6.288-45.544,18.013,18.013,0,0,0,2.882-9.809,17.36,17.36,0,0,0-34.11-5A25.83,25.83,0,0,0,876.94,414.71c-14.336,0-25.96,11.889-25.96,26.551a27.035,27.035,0,0,0,1.591,9.163c-.523-.041-1.054-.082-1.591-.082a21.06,21.06,0,0,0-20.835,21.31,20.383,20.383,0,0,0,.109,2.148,26.511,26.511,0,0,0-15.634,24.315c0,14.615,11.556,26.463,25.878,26.463a25.444,25.444,0,0,0,4.48-.4c-.075.884-.122,1.774-.122,2.671,0,16.4,13,29.692,29.033,29.692a28.448,28.448,0,0,0,16.532-5.289,21.311,21.311,0,0,0,14.037,5.289,21.943,21.943,0,0,0,21.691-22.187c0-.53-.041-1.054-.075-1.577h.075c12.827,0,23.227-10.638,23.227-23.758A23.792,23.792,0,0,0,936.684,487.886Z" transform="translate(-360.326 -302.384)" fill="#00897b"/>
      <rect id="Rectangle_43" data-name="Rectangle 43" width="6.743" height="167.751" transform="translate(523.813 151.609)" fill="url(#linear-gradient-3)"/>
      <rect id="Rectangle_44" data-name="Rectangle 44" width="3.392" height="165.392" transform="translate(525.729 153.968)" fill="#795548"/>
      <rect id="Rectangle_45" data-name="Rectangle 45" width="40.976" height="3.392" transform="translate(525.409 202.675) rotate(-47.2)" fill="#795548"/>
      <rect id="Rectangle_46" data-name="Rectangle 46" width="3.392" height="35.952" transform="matrix(0.596, -0.803, 0.803, 0.596, 496.796, 209.64)" fill="#795548"/>
      <g id="_Group_3" data-name="&lt;Group&gt;" transform="translate(440.488 182.708)">
        <path id="Path_44" data-name="Path 44" d="M803.827,570.245a20.862,20.862,0,0,1-5.656-14.275,21.175,21.175,0,0,1,10.387-18.1,12.29,12.29,0,0,1-2.168-6.968,12.886,12.886,0,0,1,13.1-12.657,13.045,13.045,0,0,1,12.569,9.109,19.659,19.659,0,0,1,16.715-9.109c10.781,0,19.523,8.443,19.523,18.856a18.252,18.252,0,0,1-1.2,6.512c.394,0,.788-.061,1.2-.061A15.393,15.393,0,0,1,883.93,558.7a14.782,14.782,0,0,1-.082,1.529A18.8,18.8,0,0,1,895.615,577.5c0,10.38-8.708,18.8-19.455,18.8a20.216,20.216,0,0,1-3.4-.285c.061.625.1,1.258.1,1.9,0,11.651-9.775,21.073-21.834,21.073a22.256,22.256,0,0,1-12.378-3.691,16.573,16.573,0,0,1-10.557,3.725c-9.007,0-16.314-7.056-16.314-15.757a6.735,6.735,0,0,1,.061-1.115h-.061c-9.646,0-17.463-7.552-17.463-16.872A16.817,16.817,0,0,1,803.827,570.245Z" transform="translate(-794.31 -518.249)" fill="url(#linear-gradient-5)"/>
      </g>
      <path id="_Path_6" data-name="&lt;Path&gt;" d="M806.6,571.2a19.964,19.964,0,0,1-5.438-13.65,20.263,20.263,0,0,1,9.945-17.32,11.76,11.76,0,0,1-2.073-6.669,12.332,12.332,0,0,1,12.535-12.113,12.48,12.48,0,0,1,12.032,8.721,18.816,18.816,0,0,1,15.995-8.721c10.319,0,18.687,8.082,18.687,18.054a17.472,17.472,0,0,1-1.142,6.233c.381,0,.755-.054,1.142-.054a14.748,14.748,0,0,1,15,14.486,14.15,14.15,0,0,1-.075,1.461,17.993,17.993,0,0,1,11.264,16.532c0,9.938-8.341,17.993-18.625,17.993a19.335,19.335,0,0,1-3.222-.272c.054.6.088,1.2.088,1.815,0,11.148-9.353,20.189-20.9,20.189a21.3,21.3,0,0,1-11.9-3.6,15.865,15.865,0,0,1-10.1,3.6c-8.619,0-15.634-6.75-15.634-15.084a6.975,6.975,0,0,1,.054-1.067h-.054c-9.231,0-16.715-7.233-16.715-16.151A16.1,16.1,0,0,1,806.6,571.2Z" transform="translate(-354.831 -336.566)" fill="#009688"/>
      <line id="_Path_7" data-name="&lt;Path&gt;" y2="112.208" transform="translate(487.187 213.515)" fill="#795548"/>
      <rect id="Rectangle_47" data-name="Rectangle 47" width="6.111" height="112.208" transform="translate(484.026 213.515)" fill="url(#linear-gradient-6)"/>
      <rect id="Rectangle_48" data-name="Rectangle 48" width="3.378" height="112.208" transform="translate(485.495 213.515)" fill="#795548"/>
      <line id="_Path_8" data-name="&lt;Path&gt;" x1="20.033" y1="20.44" transform="translate(467.495 226.682)" fill="#795548"/>
      <rect id="Rectangle_49" data-name="Rectangle 49" width="3.378" height="28.618" transform="matrix(0.714, -0.7, 0.7, 0.714, 466.285, 227.863)" fill="#795548"/>
      <line id="_Path_9" data-name="&lt;Path&gt;" y1="14.574" x2="20.773" transform="translate(487.527 250.113)" fill="#795548"/>
      <rect id="Rectangle_50" data-name="Rectangle 50" width="25.375" height="3.378" transform="translate(486.559 263.289) rotate(-35.06)" fill="#795548"/>
      <g id="_Group_4" data-name="&lt;Group&gt;" transform="translate(420.169 185.706)">
        <path id="Path_45" data-name="Path 45" d="M851.742,574.988a21.752,21.752,0,0,0-4.493-32.574,12.916,12.916,0,0,0,2.039-7.015,12.426,12.426,0,0,0-24.41-3.569A18.476,18.476,0,0,0,809,522.66a18.778,18.778,0,0,0-18.564,18.986,19.331,19.331,0,0,0,1.135,6.553c-.374,0-.755-.061-1.135-.061a15.07,15.07,0,0,0-14.9,15.24,10.5,10.5,0,0,0,.075,1.536A18.938,18.938,0,0,0,764.42,582.3a18.721,18.721,0,0,0,18.5,18.925,18.2,18.2,0,0,0,3.2-.286c-.054.632-.088,1.264-.088,1.91a21.006,21.006,0,0,0,20.76,21.236,20.345,20.345,0,0,0,11.821-3.779,15.24,15.24,0,0,0,10.04,3.779,15.689,15.689,0,0,0,15.512-15.866,7.778,7.778,0,0,0-.054-1.128h.054A16.8,16.8,0,0,0,860.783,590.1,17.028,17.028,0,0,0,851.742,574.988Z" transform="translate(-764.419 -522.66)" fill="url(#linear-gradient-7)"/>
      </g>
      <path id="_Path_10" data-name="&lt;Path&gt;" d="M850.738,576.356a20.447,20.447,0,0,0-4.221-30.589,12.094,12.094,0,0,0,1.937-6.58,11.665,11.665,0,0,0-22.915-3.351,17.341,17.341,0,0,0-14.921-8.606A17.624,17.624,0,0,0,793.2,545.053a18.144,18.144,0,0,0,1.067,6.152c-.353,0-.68-.054-1.067-.054a14.146,14.146,0,0,0-13.983,14.275,10.1,10.1,0,0,0,.068,1.441,17.776,17.776,0,0,0-10.5,16.314,17.569,17.569,0,0,0,17.368,17.762,17.074,17.074,0,0,0,3-.272q-.081.887-.082,1.795A19.716,19.716,0,0,0,808.559,622.4a19.1,19.1,0,0,0,11.1-3.548,14.275,14.275,0,0,0,9.421,3.548,14.73,14.73,0,0,0,14.56-14.887,6.975,6.975,0,0,0-.054-1.054h.054a15.77,15.77,0,0,0,15.594-15.947,15.981,15.981,0,0,0-8.5-14.153Z" transform="translate(-345.646 -338.417)" fill="#00897b"/>
      <rect id="Rectangle_51" data-name="Rectangle 51" width="4.527" height="112.595" transform="translate(469.826 215.187)" fill="url(#linear-gradient-3)"/>
      <rect id="Rectangle_52" data-name="Rectangle 52" width="2.277" height="111.012" transform="translate(471.111 216.771)" fill="#795548"/>
      <rect id="Rectangle_53" data-name="Rectangle 53" width="27.503" height="2.277" transform="translate(470.891 249.455) rotate(-47.2)" fill="#795548"/>
      <rect id="Rectangle_54" data-name="Rectangle 54" width="2.277" height="24.131" transform="matrix(0.596, -0.803, 0.803, 0.596, 451.685, 254.137)" fill="#795548"/>
      <rect id="Rectangle_55" data-name="Rectangle 55" width="191.692" height="170.62" transform="translate(275.476 159.964)" fill="url(#linear-gradient-3)"/>
      <rect id="Rectangle_56" data-name="Rectangle 56" width="312.689" height="165.182" transform="translate(149.721 159.964)" fill="#fff"/>
      <path id="Path_46" data-name="Path 46" d="M703.821,471H396.57V390.79H692.605a11.216,11.216,0,0,1,11.216,11.216Z" transform="translate(-226.45 -294.724)" fill="url(#linear-gradient-3)"/>
      <path id="Path_47" data-name="Path 47" d="M250.26,146h293.4a11.216,11.216,0,0,1,11.216,11.216v63.755H250.26Z" transform="translate(-80.147 -46.759)" fill="#1a4789"/>
      <path id="Path_48" data-name="Path 48" d="M250.26,146h293.4a11.216,11.216,0,0,1,11.216,11.216v63.755H250.26Z" transform="translate(-80.147 -46.759)" fill="#fff" opacity="0.7"/>
      <path id="Path_49" data-name="Path 49" d="M199.3,13.32,93.26,88V334.846H305.345V88Z" transform="translate(-29.869 -4.27)" fill="url(#linear-gradient-3)"/>
      <path id="Path_50" data-name="Path 50" d="M303.469,86.741,202.864,13.32,102.26,86.741v61.851H303.469Z" transform="translate(-32.751 -4.27)" fill="#1a4789"/>
      <path id="Path_51" data-name="Path 51" d="M303.469,86.741,202.864,13.32,102.26,86.741v61.851H303.469Z" transform="translate(-32.751 -4.27)" fill="#fff" opacity="0.5"/>
      <rect id="Rectangle_57" data-name="Rectangle 57" width="201.209" height="180.816" transform="translate(69.509 144.329)" fill="#fff"/>
      <path id="Path_52" data-name="Path 52" d="M306.137,119.934,192.617,38.873,77.737,119.934,70.26,91.425,192.617,2.37,314.973,91.425Z" transform="translate(-22.503 -0.763)" fill="url(#linear-gradient-12)"/>
      <path id="Path_53" data-name="Path 53" d="M307.489,116.894,195.009,35.031,82.536,116.894,77.73,91.261,195.009,5.91,312.295,91.261Z" transform="translate(-24.896 -1.897)" fill="#1a4789"/>
      <path id="Path_54" data-name="Path 54" d="M307.489,116.894,195.009,35.031,82.536,116.894,77.73,91.261,195.009,5.91,312.295,91.261Z" transform="translate(-24.896 -1.897)" opacity="0.2"/>
      <rect id="Rectangle_58" data-name="Rectangle 58" width="114.2" height="141.39" transform="translate(113.014 183.755)" fill="#f2f2f2"/>
      <rect id="Rectangle_59" data-name="Rectangle 59" width="114.2" height="24.471" transform="translate(113.014 183.755)" fill="#1a4789"/>
      <rect id="Rectangle_60" data-name="Rectangle 60" width="114.2" height="24.471" transform="translate(113.014 300.674)" fill="#1a4789"/>
      <path id="Path_55" data-name="Path 55" d="M677.42,652.039a1.02,1.02,0,1,0-1.02-1.02A1.02,1.02,0,0,0,677.42,652.039Z" transform="translate(-316.063 -377.733)" fill="lime"/>
      <rect id="Rectangle_61" data-name="Rectangle 61" width="55.74" height="103.323" transform="translate(333.256 221.822)" fill="#f2f2f2"/>
      <rect id="Rectangle_62" data-name="Rectangle 62" width="52.341" height="38.067" transform="translate(403.271 200.07)" fill="#f2f2f2"/>
      <rect id="Rectangle_63" data-name="Rectangle 63" width="52.341" height="16.994" transform="translate(403.271 200.07)" fill="#1a4789" opacity="0.2"/>
      <g id="_Group_5" data-name="&lt;Group&gt;" transform="translate(33.298 211.638)">
        <path id="Path_56" data-name="Path 56" d="M203.25,604.137a17.388,17.388,0,0,1-4.758-11.889,17.674,17.674,0,0,1,8.66-15.084,10.244,10.244,0,0,1-1.808-5.805,10.74,10.74,0,0,1,10.917-10.55,10.876,10.876,0,0,1,10.5,7.606,16.389,16.389,0,0,1,13.935-7.593c8.986,0,16.273,7.042,16.273,15.723a15.219,15.219,0,0,1-1,5.438c.333,0,.68-.048,1-.048a12.843,12.843,0,0,1,13.058,12.616,12.324,12.324,0,0,1-.068,1.271,15.669,15.669,0,0,1,9.809,14.4c0,8.653-7.26,15.668-16.219,15.668a16.851,16.851,0,0,1-2.807-.238c.048.523.075,1.047.075,1.584,0,9.714-8.157,17.585-18.2,17.585a18.551,18.551,0,0,1-10.366-3.134,13.819,13.819,0,0,1-8.8,3.134,13.391,13.391,0,0,1-13.6-13.14,6.066,6.066,0,0,1,.048-.931h-.048a14.322,14.322,0,0,1-14.56-14.064,14.017,14.017,0,0,1,7.96-12.548Z" transform="translate(-195.29 -560.808)" fill="url(#linear-gradient-13)"/>
      </g>
      <path id="_Path_11" data-name="&lt;Path&gt;" d="M205.556,604.928a16.647,16.647,0,0,1-4.514-11.379,16.892,16.892,0,0,1,8.286-14.438,9.8,9.8,0,0,1-1.727-5.56,10.278,10.278,0,0,1,10.455-10.1,10.407,10.407,0,0,1,10.026,7.267,15.682,15.682,0,0,1,13.337-7.267,15.318,15.318,0,0,1,15.573,15.05,14.567,14.567,0,0,1-.952,5.193c.313,0,.632-.048.952-.048a12.313,12.313,0,0,1,12.5,12.079,11.8,11.8,0,0,1-.061,1.217,15,15,0,0,1,9.381,13.786,15.268,15.268,0,0,1-15.526,15,16.13,16.13,0,0,1-2.717-.231c.046.5.073,1.006.073,1.516,0,9.292-7.8,16.831-17.422,16.831a17.756,17.756,0,0,1-9.885-3.005,13.222,13.222,0,0,1-8.421,3,12.8,12.8,0,0,1-13.011-12.576,5.545,5.545,0,0,1,.048-.891h-.048a13.708,13.708,0,0,1-13.935-13.466A13.418,13.418,0,0,1,205.556,604.928Z" transform="translate(-162.85 -350.016)" fill="#009688"/>
      <line id="_Path_12" data-name="&lt;Path&gt;" y2="93.542" transform="translate(72.235 237.307)" fill="#795548"/>
      <rect id="Rectangle_64" data-name="Rectangle 64" width="5.098" height="93.542" transform="translate(69.597 237.307)" fill="url(#linear-gradient-3)"/>
      <rect id="Rectangle_65" data-name="Rectangle 65" width="2.814" height="93.542" transform="translate(70.821 237.307)" fill="#795548"/>
      <line id="_Path_13" data-name="&lt;Path&gt;" x1="16.708" y1="17.042" transform="translate(55.812 248.278)" fill="#795548"/>
      <rect id="Rectangle_66" data-name="Rectangle 66" width="2.814" height="23.86" transform="matrix(0.714, -0.7, 0.7, 0.714, 54.807, 249.265)" fill="#795548"/>
      <line id="_Path_14" data-name="&lt;Path&gt;" y1="12.147" x2="17.313" transform="translate(72.52 267.814)" fill="#795548"/>
      <rect id="Rectangle_67" data-name="Rectangle 67" width="21.154" height="2.814" transform="translate(71.709 278.801) rotate(-35.06)" fill="#795548"/>
      <g id="_Group_6" data-name="&lt;Group&gt;" transform="translate(-0.01 211.638)">
        <path id="Path_57" data-name="Path 57" d="M154.25,604.137a17.388,17.388,0,0,1-4.758-11.889,17.674,17.674,0,0,1,8.66-15.084,10.244,10.244,0,0,1-1.808-5.805,10.74,10.74,0,0,1,10.917-10.55,10.876,10.876,0,0,1,10.5,7.606,16.389,16.389,0,0,1,13.935-7.593c8.986,0,16.273,7.042,16.273,15.723a15.22,15.22,0,0,1-1,5.438c.333,0,.68-.048,1-.048a12.843,12.843,0,0,1,13.058,12.616,12.333,12.333,0,0,1-.068,1.271,15.669,15.669,0,0,1,9.809,14.4c0,8.653-7.26,15.668-16.219,15.668a16.851,16.851,0,0,1-2.807-.238c.048.523.075,1.047.075,1.584,0,9.714-8.157,17.585-18.2,17.585a18.551,18.551,0,0,1-10.366-3.134,13.819,13.819,0,0,1-8.8,3.134,13.391,13.391,0,0,1-13.6-13.14,6.064,6.064,0,0,1,.048-.931h-.048a14.322,14.322,0,0,1-14.56-14.064A14.017,14.017,0,0,1,154.25,604.137Z" transform="translate(-146.29 -560.808)" fill="url(#linear-gradient-13)"/>
      </g>
      <path id="_Path_15" data-name="&lt;Path&gt;" d="M156.556,604.928a16.647,16.647,0,0,1-4.514-11.379,16.892,16.892,0,0,1,8.286-14.438,9.8,9.8,0,0,1-1.727-5.56,10.278,10.278,0,0,1,10.455-10.1,10.407,10.407,0,0,1,10.026,7.267,15.682,15.682,0,0,1,13.337-7.267,15.318,15.318,0,0,1,15.573,15.05,14.567,14.567,0,0,1-.952,5.193c.313,0,.632-.048.952-.048a12.313,12.313,0,0,1,12.5,12.079,11.805,11.805,0,0,1-.061,1.217,15,15,0,0,1,9.381,13.786,15.268,15.268,0,0,1-15.526,15,16.13,16.13,0,0,1-2.717-.231c.046.5.073,1.006.073,1.516,0,9.292-7.8,16.831-17.422,16.831a17.756,17.756,0,0,1-9.885-3.005,13.222,13.222,0,0,1-8.421,3,12.8,12.8,0,0,1-13.011-12.576,5.545,5.545,0,0,1,.048-.891h-.048a13.708,13.708,0,0,1-13.935-13.466A13.418,13.418,0,0,1,156.556,604.928Z" transform="translate(-147.158 -350.016)" fill="#009688"/>
      <line id="_Path_16" data-name="&lt;Path&gt;" y2="93.542" transform="translate(38.927 237.307)" fill="#795548"/>
      <rect id="Rectangle_68" data-name="Rectangle 68" width="5.098" height="93.542" transform="translate(36.289 237.307)" fill="url(#linear-gradient-3)"/>
      <rect id="Rectangle_69" data-name="Rectangle 69" width="2.814" height="93.542" transform="translate(37.513 237.307)" fill="#795548"/>
      <line id="_Path_17" data-name="&lt;Path&gt;" x1="16.708" y1="17.042" transform="translate(22.504 248.278)" fill="#795548"/>
      <rect id="Rectangle_70" data-name="Rectangle 70" width="2.814" height="23.86" transform="matrix(0.714, -0.7, 0.7, 0.714, 21.505, 249.267)" fill="#795548"/>
      <line id="_Path_18" data-name="&lt;Path&gt;" y1="12.147" x2="17.313" transform="translate(39.212 267.814)" fill="#795548"/>
      <rect id="Rectangle_71" data-name="Rectangle 71" width="21.154" height="2.814" transform="translate(38.401 278.805) rotate(-35.06)" fill="#795548"/>
      <g id="_Group_7" data-name="&lt;Group&gt;" transform="translate(10.92 212.047)">
        <path id="Path_58" data-name="Path 58" d="M235.172,605.071a18.156,18.156,0,0,0-3.745-27.19,10.741,10.741,0,0,0,1.72-5.846,10.36,10.36,0,0,0-20.352-2.977,15.4,15.4,0,0,0-13.249-7.647,15.634,15.634,0,0,0-15.478,15.825,16.119,16.119,0,0,0,.945,5.439c-.313,0-.626-.048-.945-.048a12.562,12.562,0,0,0-12.433,12.766,8.943,8.943,0,0,0,.061,1.285,15.838,15.838,0,0,0,6.1,30.27,15.161,15.161,0,0,0,2.671-.238c-.048.523-.075,1.054-.075,1.591A17.485,17.485,0,0,0,197.7,645.972a16.994,16.994,0,0,0,9.857-3.154,12.7,12.7,0,0,0,8.368,3.154,13.079,13.079,0,0,0,12.915-13.221,6.155,6.155,0,0,0-.048-.938h.048a14.01,14.01,0,0,0,13.847-14.159,14.193,14.193,0,0,0-7.511-12.582Z" transform="translate(-162.369 -561.41)" fill="url(#linear-gradient-17)"/>
      </g>
      <path id="_Path_19" data-name="&lt;Path&gt;" d="M234.355,606.225a17.042,17.042,0,0,0-3.521-25.491,10.08,10.08,0,0,0,1.611-5.486,9.721,9.721,0,0,0-19.1-2.794,14.458,14.458,0,0,0-12.44-7.178,14.7,14.7,0,0,0-14.492,14.86,15.124,15.124,0,0,0,.891,5.125c-.292,0-.591-.048-.89-.048a11.794,11.794,0,0,0-11.658,11.923,7.842,7.842,0,0,0,.061,1.2,14.819,14.819,0,0,0-8.755,13.6,14.649,14.649,0,0,0,14.479,14.805,14.225,14.225,0,0,0,2.508-.224c-.041.5-.068.992-.068,1.5a16.432,16.432,0,0,0,16.246,16.613,15.92,15.92,0,0,0,9.252-2.957,11.923,11.923,0,0,0,7.844,2.95,12.276,12.276,0,0,0,12.141-12.412,6.362,6.362,0,0,0-.041-.884h.041a13.146,13.146,0,0,0,13-13.3A13.323,13.323,0,0,0,234.355,606.225Z" transform="translate(-152.631 -350.599)" fill="#00897b"/>
      <rect id="Rectangle_72" data-name="Rectangle 72" width="3.773" height="93.868" transform="translate(52.318 236.661)" fill="url(#linear-gradient-18)"/>
      <rect id="Rectangle_73" data-name="Rectangle 73" width="1.897" height="92.549" transform="translate(53.392 237.98)" fill="#795548"/>
      <rect id="Rectangle_74" data-name="Rectangle 74" width="22.928" height="1.897" transform="translate(53.228 265.23) rotate(-47.2)" fill="#795548"/>
      <rect id="Rectangle_75" data-name="Rectangle 75" width="1.897" height="20.121" transform="matrix(0.596, -0.803, 0.803, 0.596, 37.2, 269.128)" fill="#795548"/>
      <path id="Path_59" data-name="Path 59" d="M775.378,287.2a104,104,0,0,0-148.867-1.122c-39.365,39.684-40.031,104.3-1.529,144.789a104,104,0,0,0,133.382,14.744l75.181,78.172a5.057,5.057,0,0,0,7.158.143l18.727-18.007a5.057,5.057,0,0,0,.143-7.158l-75.181-78.172A104,104,0,0,0,775.378,287.2ZM751.96,412.9A74.386,74.386,0,1,1,754,307.719,74.386,74.386,0,0,1,751.96,412.9Z" transform="translate(-290.488 -251.324)" fill="url(#linear-gradient-19)"/>
      <path id="Path_60" data-name="Path 60" d="M665.331,377.85c-8.368,0-8.381,13,0,13S673.706,377.85,665.331,377.85Z" transform="translate(-310.507 -290.58)" fill="url(#linear-gradient-20)"/>
      <path id="Path_61" data-name="Path 61" d="M728.326,316.582c-22.514-.51-43.008,10.788-53.9,27.87-3.555,5.56,6.539,10.475,10.074,4.942,9.02-14.119,26.164-23.112,44.687-22.616a56.957,56.957,0,0,1,46.468,27.027c3.555,5.853,12.854.53,9.326-5.289C773.625,329.776,751.588,317.106,728.326,316.582Z" transform="translate(-315.192 -270.954)" fill="url(#linear-gradient-21)"/>
      <path id="Path_62" data-name="Path 62" d="M787.378,281.377a104,104,0,0,0-148.867-1.122c-39.365,39.684-40.031,104.3-1.529,144.789a104,104,0,0,0,133.382,14.744l75.181,78.172a5.058,5.058,0,0,0,7.158.143l18.734-18.014a5.057,5.057,0,0,0,.143-7.158L796.4,414.76A104,104,0,0,0,787.378,281.377Zm-23.418,125.7A74.386,74.386,0,1,1,766,301.9a74.386,74.386,0,0,1-2.039,105.179Z" transform="translate(-294.331 -249.46)" fill="#1a4789"/>
      <path id="Path_63" data-name="Path 63" d="M677.331,372c-8.368,0-8.382,13,0,13S685.706,372,677.331,372Z" transform="translate(-314.349 -288.706)" fill="#1a4789"/>
      <path id="Path_64" data-name="Path 64" d="M740.326,310.762c-22.514-.51-43.008,10.788-53.9,27.87-3.555,5.56,6.539,10.475,10.074,4.942,9.02-14.119,26.164-23.112,44.687-22.616a56.957,56.957,0,0,1,46.468,27.027c3.555,5.853,12.854.53,9.326-5.289C785.625,323.97,763.588,311.292,740.326,310.762Z" transform="translate(-319.035 -269.09)" fill="#1a4789"/>
    </g>
  </g>
</svg>
